<?xml version="1.0" standalone="no"?>
<!DOCTYPE svg PUBLIC "-//W3C//DTD SVG 1.1//EN" "http://www.w3.org/Graphics/SVG/1.1/DTD/svg11.dtd">
<svg xmlns="http://www.w3.org/2000/svg" width="146" height="269" viewBox="0 0 146 269"><path fill-rule="evenodd" d="M85.076 26.408c-.642.774-1.126 3.137-1.075 5.25s-.205 5.079-.57 6.59a6.45 6.45 0 0 0 .88 5.104c.849 1.296 1.849 3.981 2.221 5.968.872 4.648-1.037 6.68-6.273 6.68-6.418 0-8.994 3.625-11.091 15.607-.952 5.441-2.228 10.793-2.835 11.893-2.877 5.213-2.361 17.569 1.107 26.5.448 1.155-.86 1.845-5.679 3l-6.261 1.5-.31 5.47c-.17 3.008-.762 6.014-1.314 6.679s-1.193 4.279-1.425 8.03c-.232 3.752-.831 8.509-1.331 10.571-.5 2.063-.692 3.75-.426 3.75s-.663 1.363-2.065 3.029c-4.723 5.613-4.684 15.239.068 17.046 2.028.771 2.394 1.425 1.9 3.393-.462 1.843.061 3.08 2.146 5.07 2.594 2.475 3.192 2.601 10.101 2.117 4.654-.326 7.979-1.09 9.079-2.085 2.322-2.101 2.754-1.994 3.471.863.754 3.007 3.498 3.967 7.878 2.758 2.699-.746 3.784-.564 5.645.943 3.309 2.68 4.032 2.329 3.388-1.641l-.569-3.507 2.882 1.257c5.054 2.204 9.377 6.053 11.93 10.622 1.365 2.441 2.213 4.708 1.885 5.037s-15.072.838-32.765 1.131l-32.168.534 42.417.216c23.329.12 42.108-.092 41.73-.469-.377-.377-2.728-.58-5.224-.451s-5.439-.051-6.539-.4c-1.866-.592-1.896-.795-.443-3.014 1.991-3.038 1.96-4.032-.191-6.268-5.093-5.292-5.431-6.064-5.862-13.359-.48-8.14-.481-7.812.041-13.183.207-2.124-.266-5.398-1.051-7.276-1.204-2.883-1.222-4.23-.116-8.639 1.81-7.213 1.049-19.296-1.669-26.524-1.052-2.796-1.526-6.694-1.355-11.142.212-5.543-.096-7.237-1.624-8.928-1.648-1.824-1.746-2.627-.782-6.359.606-2.349 1.256-5.171 1.444-6.271.237-1.389 1.471.293 4.036 5.5 2.033 4.125 5.491 10.025 7.685 13.11 2.194 3.086 4.141 6.998 4.327 8.694.185 1.695.908 3.771 1.606 4.612 1.007 1.213 1.038 3.658.152 11.807-.615 5.652-1.578 16.127-2.141 23.277-.564 7.15-1.427 16.825-1.92 21.5-1.173 11.133-1.194 13-.15 13 .479 0 1.172-3.713 1.541-8.25.368-4.537 1.312-14.55 2.096-22.25.785-7.7 1.381-15.125 1.324-16.5s.408-4.924 1.033-7.886c.624-2.963 1.135-6.72 1.135-8.349s.722-4.484 1.605-6.344c1.17-2.467 1.356-4.131.686-6.151-.526-1.587-.605-8.534-.184-16.27.403-7.425 1.284-23.298 1.956-35.274 1.081-19.241.981-24.155-.46-22.643-.219.23-.934 10.317-1.591 22.417s-1.344 22.9-1.528 24c-.185 1.1-.369 6.162-.41 11.25-.076 9.464-1.434 12.264-2.667 5.5-.376-2.062-2.421-7.051-4.545-11.085S114 78.54 114 76.964c0-3.84-2.655-13.844-4.153-15.649-1.714-2.065-6.372-4.315-8.932-4.315-2.07 0-2.039-.114.575-2.171 2.592-2.039 2.723-2.513 2.166-7.846-.78-7.458-4.023-13.309-10.03-18.092-5.3-4.22-6.757-4.643-8.55-2.483M86.5 34c.34.55.816 1 1.059 1s.441-.45.441-1-.477-1-1.059-1-.781.45-.441 1m5.9 2.765c-.605.404-1.641 1.76-2.3 3.013-.66 1.253-1.597 2.033-2.081 1.734-1.179-.729-2.307 1.212-1.482 2.548.417.674 1.11.438 1.906-.652 1.649-2.255 2.483-.826 3.238 5.547.481 4.064.286 5.12-1.038 5.629C88.391 55.448 89.6 57 92.524 57c1.367 0 2.859-.847 3.456-1.963.598-1.116 1.67-1.725 2.487-1.411.791.303 2.017.193 2.725-.245.907-.56.553-.969-1.197-1.382-1.366-.323-2.645-1.42-2.841-2.439-.276-1.43.065-1.702 1.495-1.193 1.304.465 1.136.099-.57-1.237-2.413-1.89-3.896-6.13-2.144-6.13.507 0 1.586.663 2.396 1.474 1.3 1.299 1.548 1.284 2.089-.126.915-2.385-2.459-6.317-5.42-6.317-.825 0-1.995.33-2.6.734M78.686 58.017C75.6 58.943 73 60.789 73 62.054c0 .446 1.366 1.782 3.035 2.971 2.44 1.737 3.323 1.923 4.5.946.94-.78 1.465-.834 1.465-.152 0 .584-.411 1.317-.913 1.627-1.983 1.226-2.268 8.492-.538 13.702.946 2.848 1.772 7.236 1.835 9.751.067 2.636.767 5.23 1.652 6.124C86.709 99.719 92.655 103 94.868 103c1.173 0 2.132.5 2.132 1.111 0 .729-1.206.885-3.5.455-4.307-.808-4.468-.118-.456 1.957 2.587 1.338 3.578 1.381 6.59.292 4.701-1.7 5.885-4.017 3.863-7.562-1.32-2.315-1.472-2.387-.951-.455.706 2.62-1.011 5.217-3.418 5.17-1.445-.028-1.431-.181.122-1.36.963-.731 1.75-2.03 1.75-2.886 0-2.511-1.136-4.756-2.105-4.157-1.507.931-.996-.796.834-2.818 1.639-1.811 1.639-1.961 0-2.879-2.484-1.39-2.268-4.242.271-3.578 1.1.287 2 .115 2-.384 0-.498-.702-.906-1.559-.906s-1.27-.468-.916-1.04c.353-.572-.52-1.955-1.941-3.073S95 78.213 95 77.427c0-2.082-1.764-1.745-2.468.472-.331 1.044-1.803 3.099-3.27 4.566-1.746 1.746-2.281 2.905-1.55 3.357.812.502.783 1.148-.105 2.362-1.689 2.31-3.756.786-4.209-3.103-.202-1.736-.824-4.009-1.383-5.053C80.71 77.59 80.7 73 82 73c.55 0 1 1.318 1 2.929 0 3.983 2.486 6.416 5.117 5.008 2.586-1.384 3.891-4.98 3.61-9.948-.211-3.716-.531-4.119-4.477-5.632-2.338-.896-4.25-2.066-4.25-2.6s.725-.693 1.611-.353c1.18.453 1.448.192 1-.974-.336-.877-.611-2.232-.611-3.012 0-1.562-2.019-1.691-6.314-.401m18.943 3.24c-.945 3.523-.788 3.754 1.871 2.743 1.607-.611 2.5-.602 2.5.025 0 .536-.787 1.044-1.75 1.127-3.211.28-3.744.397-4.786 1.051-1.165.731-1.218 4.768-.087 6.597.407.66.465 1.646.128 2.192C94.734 76.24 99.4 81 101.396 81c.817 0 1.764-.45 2.104-1s-.117-1-1.014-1c-1.027 0-1.497-.649-1.268-1.75.236-1.137 1.149-1.665 2.605-1.506 1.954.213 2.104-.013 1.167-1.763-.733-1.369-.753-2.56-.063-3.744.893-1.532 1.016-1.463 1.043.583.024 1.826.508 2.251 2.28 2 1.985-.282 2.226-.843 2.043-4.749-.253-5.408-2.323-7.612-7.928-8.444-3.694-.548-4.199-.375-4.736 1.63m-7.05 3.424c.888.65 2.247.939 3.018.643 2.371-.909 1.561-1.824-1.615-1.824-2.566 0-2.777.177-1.403 1.181M70.518 74.869c-.368 2.678-1.344 6.166-2.169 7.75-2.083 4.002-2.792 14.933-1.321 20.381.668 2.475 1.353 6.075 1.521 8 .169 1.925.339 3.702.379 3.95.039.247.635-.117 1.322-.81.736-.742 1.273-4.009 1.306-7.95C71.63 97.445 73.104 84 73.988 84c.383 0 1.245-1.912 1.917-4.25l1.726-6c.361-1.253-.067-1.75-1.505-1.75-1.104 0-2.286-.45-2.626-1-1.317-2.131-2.339-.804-2.982 3.869m14.518 1.587C83.537 78.263 84.5 80 87 80c1.035 0 2.172-.47 2.527-1.044C90.19 77.883 88.348 75 87 75c-.415 0-1.299.655-1.964 1.456m24.214.575c-1.237.498-2.25 1.082-2.25 1.298 0 .741 5.029-.566 5.574-1.448.669-1.083-.373-1.036-3.324.15m-1 2.631c-1.752.707-1.563 5.004.25 5.7.825.316 1.498 1.602 1.497 2.857-.005 2.909 10.11 17.897 11.69 17.323.653-.237 1.389.331 1.634 1.263.35 1.327.472 1.25.563-.355.064-1.127-.279-2.477-.761-3-.482-.522-1.86-3.845-3.061-7.382-1.202-3.538-3.028-7.615-4.057-9.061s-2.176-3.839-2.547-5.318c-.647-2.579-2.273-3.211-5.208-2.027m-32.5 4.425c-2.076 3.647-2.428 9.453-.5 8.253.688-.428 2.263-.647 3.5-.488 1.753.227 2.25-.206 2.25-1.959 0-2.539-2.111-8.896-2.951-8.887-.302.004-1.336 1.39-2.299 3.081m-.812 11.03c-1.237 2.311-1.476 7.574-.972 21.383.18 4.95-.01 10.575-.424 12.5-.63 2.93-.532 3.288.603 2.201 1.017-.974 1.404-5.442 1.552-17.896.118-10.025.613-17.015 1.25-17.652 1.316-1.316 1.361-2.653.088-2.653-.53 0-1.474.952-2.097 2.117m4.312.616c-.687.239-1.25 1.393-1.25 2.565 0 1.962.128 2.003 1.616.515 1.801-1.801 1.569-3.75-.366-3.08M92 98.917c0 1.228.646 2.083 1.573 2.083.932 0 1.442-.68 1.25-1.667C94.337 96.824 92 96.48 92 98.917M82 99c0 .55.477 1 1.059 1s.781-.45.441-1-.816-1-1.059-1-.441.45-.441 1m-4.276 4.227c.554.7 1.257 1.948 1.563 2.773.379 1.024.58.82.634-.643.043-1.179-.66-2.426-1.562-2.773-1.228-.471-1.388-.309-.635.643m11.987 4.675c4.683 4.557 7.758 5.158 11.38 2.225l2.313-1.872-5.192.499c-4.508.433-5.688.139-8.952-2.226l-3.76-2.724zm-5.681-.352c.027 2.586.163 2.722 1.104 1.104.769-1.324.761-2.159-.03-2.95-.805-.805-1.096-.305-1.074 1.846m5.078 5.161c1.041 2.042 1.892 4.259 1.892 4.928s1.688 2.614 3.75 4.323c3.04 2.52 4.506 3.054 7.741 2.823 3.023-.216 4.081-.754 4.359-2.219.202-1.064-.4-2.495-1.338-3.181-1.011-.739-1.747-2.701-1.807-4.816-.113-3.976-.366-4.14-3.146-2.037-2.809 2.124-5.704 1.812-9.559-1.032-1.864-1.375-3.478-2.5-3.586-2.5-.109 0 .653 1.67 1.694 3.711m-5.072-.183c.02 1.084 1.165 3.322 2.544 4.972l2.509 3-.666-3c-.366-1.65-1.511-3.888-2.544-4.972-1.87-1.963-1.879-1.963-1.843 0m-3.439 8.101c-.374 3.646-1.318 7.864-2.098 9.373-1.672 3.233-1.162 3.998 2.668 3.998 2.493 0 2.833-.367 2.833-3.059 0-1.863.407-2.808 1.04-2.416.677.418.821-.346.411-2.191-.838-3.778-3.539-12.334-3.893-12.334-.155 0-.587 2.983-.961 6.629m12.633-4.44c.795 2.387 5.547 5.115 7.442 4.272 1.683-.748 1.657-.843-.318-1.193-1.18-.209-2.937-1.255-3.905-2.324-1.953-2.158-3.834-2.599-3.219-.755m-7.698 4.311c.382 1.1.944 2.876 1.249 3.946.544 1.908.569 1.908 1.227.031.598-1.704.83-1.587 2.094 1.05 1.722 3.594 11.11 9.492 13.932 8.754 1.268-.332 1.966-1.369 1.966-2.923 0-2.336-.088-2.364-2.899-.91-2.676 1.384-3.098 1.342-5.5-.547-1.431-1.125-2.601-2.542-2.601-3.148s1.042-.123 2.314 1.073c2.728 2.562 3.994 2.713 5.686.674 1.06-1.277.793-1.5-1.801-1.5-1.849 0-4.305-1.06-6.253-2.699l-3.207-2.698.683 2.448.684 2.449-1.963-2.25c-1.08-1.237-2.292-2.25-2.693-2.25s-1.378-.787-2.171-1.75c-1.348-1.636-1.397-1.62-.747.25m-28.865 1.167c-.367.366-.638 1.604-.604 2.75.059 1.915.141 1.89 1.022-.312.979-2.448.776-3.633-.418-2.438m2.817 2.405c-.925 4.212.042 4.745 1.942 1.071 1.932-3.736 1.947-4.143.153-4.143-.781 0-1.724 1.382-2.095 3.072m7.579 1.178c.053 3.557.211 3.883.968 2 1.39-3.459 2.597-2.672 2.302 1.5l-.265 3.75 1.389-4c2.203-6.344 1.978-7.5-1.457-7.5-2.873 0-2.997.18-2.937 4.25m22.013 3.274c8.893 11.151 9.983 12.154 13.335 12.28 2.833.107 3.444-.265 3.84-2.339.388-2.026.073-2.465-1.768-2.465-3.403 0-8.98-2.63-13.196-6.224-2.083-1.776-3.078-2.339-2.211-1.252M64 129.059c0 .582.45.781 1 .441s1-.816 1-1.059-.45-.441-1-.441-1 .477-1 1.059m2.733 3.528c-.715 3.572.182 11.242 1.402 11.996 1.248.772 1.067 7.417-.202 7.417-.609 0-.798-.851-.439-1.98.345-1.089.164-2.776-.403-3.75-.849-1.458-1.032-1.154-1.043 1.73-.009 2.416.737 4.211 2.409 5.797 1.333 1.264 2.603 3.739 2.823 5.5s.472-.532.56-5.097c.102-5.312.726-9.395 1.734-11.343 1.748-3.381 1.121-5.19-.861-2.48-2.189 2.994-4.832 1.025-4.353-3.243.225-1.999.085-4.513-.31-5.587-.618-1.68-.803-1.534-1.317 1.04m20.288 3.814c-.902 4.343-1.575 5.599-2.998 5.599-1.34 0-1.695-.537-1.316-1.989.286-1.094.919-1.742 1.407-1.441.487.302.886-.304.886-1.344 0-1.58-.753-1.893-4.558-1.893-4.299 0-4.543.147-4.306 2.584.138 1.421-.286 3.566-.942 4.767-.657 1.202-1.194 4.613-1.194 7.581 0 4.744.305 5.56 2.519 6.745 1.594.853 2.106 1.604 1.393 2.044-.825.51-.828.88-.012 1.384.613.379 1.299.098 1.525-.625.226-.722 1.164-4.013 2.085-7.313.922-3.3 2.053-6.9 2.515-8 .828-1.972.841-1.971.907.068.062 1.892-1.26 7.285-4.032 16.443-.964 3.185-.724 4.111 2.586 10 2.006 3.569 4.302 7.158 5.103 7.976 1.279 1.305 1.377 1.093.808-1.75-.738-3.691.329-4.118 4.106-1.643 4.182 2.74 4.402 1.155.892-6.417-1.867-4.028-3.395-7.714-3.395-8.191s-.4-1.115-.888-1.417c-1.519-.938-1.851 5.38-.427 8.124.743 1.433 1.118 2.838.833 3.122-.285.285-.659.331-.832.102-3.885-5.157-4.699-5.976-4.772-4.802-.047.762-.496.035-.998-1.615-1.415-4.654 1.592-10.723 3.658-7.381.788 1.276 5.403-7.613 5.417-10.435.005-.998-.493-2.754-1.107-3.901-.943-1.761-.865-1.99.5-1.466 2.936 1.127 1.98-4.594-1.292-7.729l-2.909-2.787zm-29.022-.898c-1.236 2.309-.688 7.497.793 7.497.414 0 1.22-2.01 1.79-4.466 1.19-5.129-.438-7.039-2.583-3.031m-3.361.997c.317.825.753 1.5.969 1.5s.393-.675.393-1.5-.436-1.5-.969-1.5-.709.675-.393 1.5m15.986 1.039c-.965 2.514-.681 3.163.498 1.136.584-1.004.851-2.036.593-2.293-.257-.258-.749.263-1.091 1.157M78 139.418c0 2.042 1.089 4.582 1.963 4.582.413 0 .702-1.349.643-2.998-.103-2.917-2.606-4.438-2.606-1.584m19.256 9.897c-.097 8.777 2.048 15.84 5.86 19.29 2.754 2.492 3.633 1.001 4.392-7.445.66-7.339-.555-13.16-2.746-13.16-.547 0-.76-.9-.472-2 .37-1.415.03-2-1.161-2-.926 0-2.606-.646-3.733-1.435-2.013-1.41-2.051-1.294-2.14 6.75m-3.625 1.255c-.334 4.361-.643 8.68-.687 9.597s1.026 4.067 2.379 7 2.689 6.008 2.97 6.833.437-1.059.344-4.186c-.131-4.459-.678-6.229-2.536-8.207-2.33-2.48-2.345-2.617-.88-8.433 1.204-4.776 1.252-6.356.253-8.223-1.101-2.056-1.304-1.435-1.843 5.619m-36.224-3.113c-.751 2.402-.747 3.963.016 5.363 1.518 2.786 3.29.597 2.992-3.697-.333-4.81-1.774-5.608-3.008-1.666M88.136 145c-.09.825-.443 2.625-.786 4-.48 1.931-.346 2.243.592 1.372.668-.621 1.022-2.421.786-4s-.502-2.197-.592-1.372m-34.057 1.583c.048 1.165.285 1.402.604.605.289-.722.253-1.585-.079-1.917s-.568.258-.525 1.312M77 147.5c0 .825.395 1.5.878 1.5.482 0 1.437-.675 2.122-1.5 1.04-1.253.896-1.5-.878-1.5-1.22 0-2.122.638-2.122 1.5m-15 2.059c0 .857.45 1.281 1 .941s1-1.041 1-1.559-.45-.941-1-.941-1 .702-1 1.559M51.5 151c-.34.55.122 1 1.026 1 1.39 0 1.593.993 1.309 6.408-.353 6.75.637 7.923 1.738 2.057 1.259-6.712-1.628-13.421-4.073-9.465m9.091 4.074c-1.425 1.694-2.571 4.057-2.547 5.253.036 1.74.434 1.435 1.998-1.526 1.074-2.035 2.687-4.11 3.584-4.612 1.003-.561 1.231-1.159.594-1.553-.571-.353-2.204.744-3.629 2.438m-9.841.258c-1.197 2.924-.948 9.266.314 8.004.585-.585.923-3.038.75-5.45-.223-3.111-.532-3.853-1.064-2.554m11.5 2.632c-1.781 2.862-1.55 4.805.716 6.018 1.632.873 2.257.607 3.681-1.566 1.268-1.935 1.445-3.048.677-4.267-1.515-2.406-3.644-2.483-5.074-.185m-15.09 3.586c-.172 4.352 1.216 6.627 3.507 5.748 1.124-.432 1.006-.839-.56-1.935-1.09-.764-2.163-2.846-2.385-4.626-.364-2.934-.417-2.858-.562.813m21.237 5.208c-1.473 2.621-1.965 4.866-1.641 7.492.646 5.232 2.999 4.903 3.572-.5.495-4.676.711-10.754.382-10.742-.116.004-1.156 1.691-2.313 3.75m4.282-3.008c-.76 1.3.112 6.007 1.749 9.442 1.448 3.037 1.967 3.314 6.325 3.385 2.611.042 4.013-.093 3.117-.301-.994-.229-1.864-1.822-2.229-4.076-.888-5.494-7.206-11.451-8.962-8.45m-18.126 2.478c-.931 1.329-1.166 2.401-.569 2.6 1.561.52 1.208 2.311-.734 3.731-1.639 1.199-1.596 1.444.674 3.86 2.556 2.721 5.902 3.28 9.17 1.531 1.452-.778 1.902-1.944 1.73-4.49-.196-2.92-.729-3.604-3.528-4.527-1.813-.599-3.296-1.702-3.296-2.452 0-2.435-1.825-2.569-3.447-.253m11.888-1.132c-.373.603-1.975.906-3.559.673-3.24-.475-3.925.765-.945 1.711 1.917.608 6.063-1.253 6.063-2.721 0-1.099-.775-.931-1.559.337m-8.339 8.854c-.063 2.766.251 4.09.831 3.5.547-.556.589-2.402.103-4.45l-.831-3.5zM105.5 173c.34.55 1.068 1 1.618 1s.722-.45.382-1-1.068-1-1.618-1-.722.45-.382 1m-5.849 4.468c-.31.807-.133 1.734.393 2.059s.956-.111.956-.968.45-1.559 1-1.559c.96 0 1.181.512 1.4 3.25.055.688.464 1.7.909 2.25s1.67 2.453 2.722 4.228c1.598 2.697 2.279 3.093 4.14 2.405 1.224-.453 2.42-1.406 2.657-2.118.237-.711-.036-1.004-.608-.651-.578.357-2.005-1.353-3.219-3.861-1.419-2.931-2.826-4.503-4.031-4.503-1.019 0-2.13-.45-2.47-1-.919-1.487-3.206-1.209-3.849.468m-37.996 22.361c-2.437 2.693-2.053 4.003 1.845 6.304 4.602 2.715 4.429 3.979-.499 3.641l-3.998-.274-.002-5.25c0-2.887-.451-5.25-1.001-5.25s-1 1.894-1 4.208v4.208l-4.383-4.301c-2.411-2.366-4.572-3.922-4.804-3.459-.847 1.702-.282 11.859.687 12.344.561.28 1.22-1.461 1.5-3.962l.5-4.463 3.682 4.313c2.026 2.373 4.125 4.04 4.666 3.706s2.122-.176 3.513.353c1.956.744 3.024.562 4.711-.805 2.751-2.227 1.867-5.868-1.639-6.748-3.37-.846-3.285-3.79.091-3.145 3.172.607 4.178-.803 1.57-2.199-2.707-1.448-3.53-1.331-5.439.779m8.881-1.032c-1.033 1.034-.522 2.203.964 2.203 1.152 0 1.5 1.278 1.5 5.5 0 3.025.45 5.5 1 5.5s1-.863 1-1.918.301-2.704.67-3.664c.43-1.121.284-1.508-.407-1.081-.72.445-.693-.16.081-1.828.636-1.371 1.756-2.497 2.489-2.501.734-.004 1.156-.54.939-1.191-.394-1.184-7.226-2.03-8.236-1.02m10.131-.13C79.59 199.743 79.897 212 81 212c.571 0 1-3 1-7 0-7.039-.109-7.557-1.333-6.333m3.583-.005c-1.96.791-1.463 2.338.75 2.338 1.758 0 2 .667 2 5.5 0 4.222.348 5.5 1.5 5.5s1.5-1.278 1.5-5.5.348-5.5 1.5-5.5c1.079 0 1.5 1.103 1.5 3.929 0 4.621 2.034 7.071 5.871 7.071 3.97 0 5.129-1.74 5.129-7.7 0-6.865-1.803-6.906-2.198-.05-.282 4.897-.487 5.271-3.052 5.566-2.702.311-2.75.222-2.75-5.125 0-5.294-.084-5.458-3.125-6.066-3.561-.712-6.802-.698-8.625.037m20.75.764c0 .866.675 1.574 1.5 1.574 1.152 0 1.5 1.278 1.5 5.5 0 6.115 1.912 7.67 2.152 1.75.084-2.062.197-4.419.252-5.237.055-.817.911-1.643 1.903-1.834 3.241-.624 1.142-2.619-3.132-2.977-3.28-.275-4.175-.012-4.175 1.224m13.315-.419c-4.464 1.799-5.378 7.788-1.742 11.423 2.554 2.554 7.944 2 10.354-1.065 2.766-3.515 2.619-4.973-.85-8.442-3.074-3.074-4.199-3.351-7.762-1.916M44 205.5c0 3.667.436 6.5 1 6.5s1-2.833 1-6.5-.436-6.5-1-6.5-1 2.833-1 6.5m74.892-4.25c-.82.688-2.056 2.002-2.748 2.922-2.751 3.654 5.317 7.967 8.656 4.628.66-.66 1.2-2.471 1.2-4.025 0-2.112-.647-3.071-2.565-3.8-3.148-1.197-2.76-1.22-4.543.275m-74.411 16.719c.729 1.18 79.074 1.142 82.019-.04 1.1-.441-17.039-.831-40.309-.866-27.053-.04-42.093.286-41.71.906M45 223c0 .55.675 1 1.5 1 1.167 0 1.5 1.333 1.5 6 0 3.333.444 6 1 6s1-2.667 1-6c0-4.667.333-6 1.5-6 .825 0 1.5-.45 1.5-1s-1.8-1-4-1-4 .45-4 1m9 5.421c0 6.366.026 6.426 3.099 7.101 1.838.403 3.547.232 4.2-.421.801-.801.23-1.101-2.099-1.101-2.533 0-3.2-.417-3.2-2 0-1.467.667-2 2.5-2 1.375 0 2.5-.45 2.5-1s-1.125-1-2.5-1c-1.833 0-2.5-.533-2.5-2s.667-2 2.5-2c1.375 0 2.5-.45 2.5-1s-1.575-1-3.5-1H54zm9 .638c0 4.451.369 6.831 1 6.441.55-.34 1-1.552 1-2.694 0-1.919.157-1.876 2.08.569 1.144 1.454 2.528 2.367 3.075 2.029.581-.359.116-1.551-1.113-2.859-1.872-1.993-1.937-2.387-.575-3.517C71.598 226.429 69.603 222 65.3 222c-2.183 0-2.3.36-2.3 7.059m9-.578c0 6.077.155 6.52 2.498 7.108 2.853.716 5.892-.149 5.089-1.448-.296-.48-1.675-.656-3.063-.39-2.056.393-2.524.089-2.524-1.634 0-1.429.631-2.117 1.941-2.117 1.068 0 2.219-.45 2.559-1 .351-.567-.49-1-1.941-1-1.892 0-2.559-.521-2.559-2 0-1.467.667-2 2.5-2 1.375 0 2.5-.45 2.5-1s-1.575-1-3.5-1H72zM81 223c0 .55 1.346 1 2.991 1h2.991l-2.991 4.861c-1.645 2.673-2.989 5.26-2.986 5.75.007 1.232 7.769 1.563 8.511.363.341-.551-.727-.974-2.457-.974-1.682 0-3.059-.243-3.059-.54 0-1.137 4.02-8.354 4.986-8.951 2.279-1.409.75-2.509-3.486-2.509-2.475 0-4.5.45-4.5 1m13.229 5.25c-1.621 3.438-2.708 6.671-2.415 7.185s1.211-.499 2.041-2.25c2.003-4.23 5.864-4.196 7.437.065.355.963 1.125 1.75 1.712 1.75.698 0 .75-.605.151-1.75-.504-.963-1.881-3.887-3.061-6.5s-2.318-4.75-2.53-4.75c-.213 0-1.713 2.813-3.335 6.25m15.771.25c0 6.208.109 6.5 2.418 6.5 3.92 0 5.721-1.108 7.154-4.4l1.35-3.1.039 3.75c.038 3.612.168 3.75 3.539 3.75 1.925 0 3.5-.45 3.5-1s-1.125-1-2.5-1c-1.556 0-2.5-.567-2.5-1.5 0-.833.889-1.5 2-1.5 1.1 0 2-.45 2-1s-.9-1-2-1q-2 0-2-2c0-1.467.667-2 2.5-2 1.375 0 2.5-.45 2.5-1s-1.575-1-3.5-1c-2.833 0-3.5.381-3.5 2 0 1.1-.225 2-.5 2s-1.4-.9-2.5-2c-1.111-1.111-3.333-2-5-2h-3zM65 226c0 1.289.506 1.998 1.25 1.75.688-.229 1.25-1.017 1.25-1.75s-.562-1.521-1.25-1.75c-.744-.248-1.25.461-1.25 1.75m47 2.969c0 4.303.234 4.885 1.75 4.344 2.986-1.064 4.25-2.472 4.25-4.735 0-2.647-1.772-4.578-4.2-4.578-1.492 0-1.8.851-1.8 4.969m-15-1.528c0 .857.45 1.559 1 1.559s1-.423 1-.941-.45-1.219-1-1.559-1 .084-1 .941M44 240c0 .651 14.667 1 42 1s42-.349 42-1-14.667-1-42-1-42 .349-42 1m.919 6.75c-.045 1.512-.194 4.1-.331 5.75-.47 5.653 1.709 7.081 6.107 4.001 1.638-1.147 2.237-1.206 2.556-.25.261.784 2.341 1.249 5.582 1.249 5.143 0 5.167-.015 5.167-3.191 0-4.574 1.362-4.799 4.869-.806 1.688 1.923 3.309 3.497 3.6 3.497.292 0 .531-2.925.531-6.5 0-3.667-.436-6.5-1-6.5-.55 0-1.019 1.912-1.043 4.25l-.042 4.25-3.735-4.25c-2.054-2.338-4.06-4.25-4.457-4.25S62 246.475 62 249.5c0 5.444-.03 5.5-3 5.5q-3 0-3-1.5c0-.833.889-1.5 2-1.5 1.1 0 2-.45 2-1 0-.92-1.417-1.408-3.25-1.118-.413.065-.75-.782-.75-1.882 0-1.467.667-2 2.5-2 1.375 0 2.5-.45 2.5-1 0-1.73-6.996-1.175-7.68.609-.568 1.48-.691 1.48-1.519 0-.51-.912-2.179-1.609-3.851-1.609-2.532 0-2.962.39-3.031 2.75m31.197-.17c-2.765 3.514-2.672 5.955.339 8.965 4.079 4.08 9.545 2.602 9.545-2.58 0-2.628-.341-2.965-3-2.965-1.65 0-3 .45-3 1s.9 1 2 1c1.111 0 2 .667 2 1.5 0 2.243-5.681 1.965-6.913-.338-2.216-4.14 1.972-8.505 6.494-6.769 1.006.386 1.436.151 1.176-.642-.226-.688-1.787-1.388-3.468-1.556-2.34-.233-3.555.327-5.173 2.385M87 249.477c0 4.739.337 5.698 2.5 7.115 2.316 1.517 2.684 1.517 5 0 2.163-1.417 2.5-2.376 2.5-7.115 0-6.996-1.797-7.181-2.198-.227-.282 4.897-.487 5.271-3.052 5.566-2.709.312-2.75.233-2.75-5.25 0-3.061-.45-5.566-1-5.566s-1 2.465-1 5.477m11 1.023v6.5h4c2.2 0 4-.45 4-1s-1.35-1-3-1q-3 0-3-1.5c0-.933.944-1.5 2.5-1.5 1.375 0 2.5-.45 2.5-1s-1.125-1-2.5-1c-1.833 0-2.5-.533-2.5-2 0-1.556.667-2 3-2 1.65 0 3-.45 3-1s-1.8-1-4-1h-4zm10.07-6.5c-.17.275-.426 3.313-.569 6.75l-.26 6.25h4.812c3.934 0 4.928-.365 5.447-2 .349-1.1 1.31-2 2.135-2 1.045 0 1.307-.607.865-2-.691-2.177.155-2.515 2.5-1 1.22.789 1.238.972.095.985-1.17.012-1.154.308.098 1.765.827.963 1.793 2.566 2.148 3.563s1.093 1.537 1.64 1.199c.777-.48-3.727-11.355-5.534-13.363-.174-.193-1.665 2.321-3.314 5.587-2.802 5.552-3.193 5.909-6.018 5.494-2.9-.425-3.036-.67-3.379-6.087-.197-3.103-.497-5.418-.666-5.143M47 247.885c0 1.438.461 1.875 1.542 1.46 1.707-.655 1.497-2.499-.354-3.116-.66-.22-1.188.517-1.188 1.656m4.543 2.046c-.317.512-.118 1.213.441 1.559s1.016-.074 1.016-.931c0-1.757-.6-2.015-1.457-.628M47 253.5c0 1.03.655 1.52 1.75 1.31 2.108-.406 1.975-2.181-.197-2.633-.906-.189-1.553.362-1.553 1.323m-3 8.612c0 .809 11.355.917 41.75.395 22.963-.394 41.938-.894 42.167-1.112.229-.217-18.559-.395-41.75-.395-30.271 0-42.167.314-42.167 1.112"/></svg>